<svg version="1.1" viewBox="0.0 0.0 720.0 540.0" fill="none" stroke="none" stroke-linecap="square" stroke-miterlimit="10" xmlns:xlink="http://www.w3.org/1999/xlink" xmlns="http://www.w3.org/2000/svg"><clipPath id="p.0"><path d="m0 0l720.0 0l0 540.0l-720.0 0l0 -540.0z" clip-rule="nonzero"/></clipPath><g clip-path="url(#p.0)"><path fill="#000000" fill-opacity="0.0" d="m0 0l720.0 0l0 540.0l-720.0 0z" fill-rule="evenodd"/><path fill="#9fc5e8" d="m427.4567 204.06824l0 0c0 -43.704422 36.522278 -79.13386 81.5748 -79.13386l0 0c21.63501 0 42.38385 8.337303 57.68213 23.177773c15.298218 14.840485 23.8927 34.96849 23.8927 55.956085l0 0c0 43.704422 -36.522278 79.13385 -81.57483 79.13385l0 0c-45.05252 0 -81.5748 -35.42943 -81.5748 -79.13385z" fill-rule="evenodd"/><path fill="#000000" fill-opacity="0.0" d="m435.71652 114.46719l89.82681 0l0 180.97638l-89.82681 0z" fill-rule="evenodd"/><path fill="#434343" d="m471.3884 252.79532q-5.875 0 -11.015625 -3.328125q-5.125 -3.328125 -8.265625 -9.453125q-3.125 -6.140625 -3.125 -14.546875q0 -11.0625 4.0 -19.1875q4.0 -8.140625 11.0625 -12.53125q7.078125 -4.40625 16.265625 -4.40625q6.40625 0 11.078125 1.1875l0 -23.859375l-9.203125 -6.40625l0 -1.453125l26.265625 -7.34375l1.59375 0l0 94.0l9.3281555 3.859375l0 2.140625l-26.65628 0l-1.0625 -6.671875l-0.9375 0q-4.9375 4.265625 -9.46875 6.140625q-4.53125 1.859375 -9.859375 1.859375zm-3.609375 -31.453125q0 10.65625 4.53125 15.59375q4.53125 4.9375 10.140625 4.9375q2.390625 0 4.453125 -0.671875q2.078125 -0.671875 4.484375 -2.0l0 -38.671875q-1.734375 -2.0 -4.0 -3.0625q-2.265625 -1.0625 -5.078125 -1.0625q-3.859375 0 -7.203125 2.140625q-3.328125 2.125 -5.328125 7.53125q-2.0 5.390625 -2.0 15.265625z" fill-rule="nonzero"/><path fill="#000000" fill-opacity="0.0" d="m507.99213 113.580055l82.6142 0l0 180.97638l-82.6142 0z" fill-rule="evenodd"/><path fill="#ffffff" d="m523.13275 250.58005l0 -2.140625l11.328125 -5.453125l0 -72.796875l-11.328125 -5.46875l0 -2.140625l42.796875 0l0 2.140625l-11.34375 5.46875l0 72.796875l11.34375 5.453125l0 2.140625l-42.796875 0z" fill-rule="nonzero"/></g></svg>